<?xml version="1.0" encoding="utf-8"?>
<!-- Generator: Adobe Illustrator 26.0.0, SVG Export Plug-In . SVG Version: 6.00 Build 0)  -->
<svg version="1.1" id="Camada_1" xmlns="http://www.w3.org/2000/svg" xmlns:xlink="http://www.w3.org/1999/xlink" x="0px" y="0px"
	 viewBox="0 0 48 48" style="enable-background:new 0 0 48 48;" xml:space="preserve">
<style type="text/css">
	.st0{fill:#F87800;}
</style>
<path class="st0" d="M25.8,25.3c1.4-4.9,3-6.1,7.9-6.2c1.4,0,2.7,0,4.1,0c1.3,0,2.5,0,3.8,0.1c2,0.1,2.7,1.2,2,3
	c-0.6,1.5-1.2,2.9-1.8,4.4c-0.9,2.3-2.7,3.4-5.1,3.5c-2.3,0.1-4.6,0.1-7,0.1c-7.4,0-14.8,0.1-22.2,0.1c-0.5,0-1,0-1.5,0
	c-2.3-0.2-3-1.2-2.1-3.3C4.4,25.5,5,24,5.7,22.6c0.8-1.9,2.3-3,4.4-3.2c4.3-0.4,8.5-0.1,12.8-0.2c0.6,0,0.9,0.2,0.5,0.8
	c0,0.1-0.1,0.2-0.1,0.3c-0.9,2.4-0.9,2.4-3.5,2.4c-3,0-5.9,0.1-8.9,0c-1.3,0-2,0.4-2.5,1.7c-0.9,2.5-1,2.4,1.7,2.4
	c8.7,0,17.4-0.1,26.1-0.1c1.4,0,2.2-0.4,2.7-1.8c0.9-2.4,1-2.3-1.6-2.3c-1.9,0-3.7,0-5.6,0c-0.8,0-1.5,0.1-1.7,1
	c-0.3,1.4-1.2,1.9-2.6,1.7C26.8,25.2,26.4,25.3,25.8,25.3z"/>
</svg>
